<svg id="Layer_1" data-name="Layer 1" xmlns="http://www.w3.org/2000/svg" viewBox="0 0 1377.34 719.27"><defs><style>.cls-1{opacity:0.2;}.cls-2{fill:#fff;}</style></defs><title>stars</title><g class="cls-1"><path class="cls-2" d="M306,180.9a.31.31,0,0,1-.29-.25.3.3,0,0,1,.25-.33h0a.31.31,0,0,1,.32.24.29.29,0,0,1-.25.33Z"/><path class="cls-2" d="M301.86,138.14a.29.29,0,0,1,0-.58h0a.31.31,0,0,1,.32.25.29.29,0,0,1-.24.33Z"/><path class="cls-2" d="M263.6,114.77a.29.29,0,0,1,0-.58h0a.31.31,0,0,1,.32.24.29.29,0,0,1-.24.33Z"/><path class="cls-2" d="M360.79,276.7a.3.3,0,0,1-.28-.25.29.29,0,0,1,.24-.33h0a.3.3,0,0,1,.32.24.29.29,0,0,1-.24.33Z"/><path class="cls-2" d="M321.91,270a.31.31,0,0,1-.29-.25.29.29,0,0,1,.25-.33h0a.31.31,0,0,1,.32.24.29.29,0,0,1-.25.33Z"/><path class="cls-2" d="M328.11,284.82a.29.29,0,0,1,0-.58h0a.31.31,0,0,1,.32.25.3.3,0,0,1-.25.33Z"/><circle class="cls-2" cx="212.96" cy="370.27" r="2.92"/><path class="cls-2" d="M364.46,139.93a.31.31,0,0,1-.29-.25.3.3,0,0,1,.25-.33h0a.32.32,0,0,1,.33.25.3.3,0,0,1-.25.33Z"/><circle class="cls-2" cx="626.06" cy="153.25" r="4.29"/><circle class="cls-2" cx="739.23" cy="133.15" r="4.29"/><circle class="cls-2" cx="743.57" cy="95.94" r="4.29"/><circle class="cls-2" cx="756.49" cy="61.64" r="4.29"/><circle class="cls-2" cx="849.35" cy="195.03" r="4.29"/><path class="cls-2" d="M833.78,26.89a2.74,2.74,0,1,1,2.29-3.12A2.74,2.74,0,0,1,833.78,26.89Z"/><path class="cls-2" d="M605.36,60.3a2.74,2.74,0,1,1,2.29-3.12A2.73,2.73,0,0,1,605.36,60.3Z"/><circle class="cls-2" cx="539.62" cy="181.38" r="4.29"/><circle class="cls-2" cx="786.89" cy="142.21" r="1.45" transform="translate(-12.44 119.88) rotate(-8.64)"/><circle class="cls-2" cx="838.43" cy="97.3" r="1.45" transform="translate(-5.1 127.12) rotate(-8.64)"/><circle class="cls-2" cx="565" cy="145.97" r="1.45" transform="translate(-15.52 86.58) rotate(-8.64)"/><circle class="cls-2" cx="513.21" cy="163.31" r="1.45" transform="translate(-18.71 78.99) rotate(-8.64)"/><circle class="cls-2" cx="268.72" cy="225.98" r="1.45" transform="translate(-30.91 42.96) rotate(-8.64)"/><circle class="cls-2" cx="56.21" cy="405.54" r="1.45" transform="translate(-60.31 13.05) rotate(-8.64)"/><circle class="cls-2" cx="98.43" cy="304.46" r="1.45" transform="matrix(0.99, -0.15, 0.15, 0.99, -44.64, 18.25)"/><circle class="cls-2" cx="727.37" cy="233.3" r="1.45" transform="matrix(0.99, -0.15, 0.15, 0.99, -26.8, 111.97)"/><circle class="cls-2" cx="151.18" cy="184.42" r="1.45" transform="translate(-26 24.82) rotate(-8.64)"/><circle class="cls-2" cx="94.34" cy="155.59" r="1.45" transform="translate(-22.31 15.95) rotate(-8.64)"/><circle class="cls-2" cx="314.84" cy="109.06" r="1.45" transform="translate(-12.81 48.56) rotate(-8.64)"/><circle class="cls-2" cx="367.56" cy="305.35" r="1.45" transform="translate(-41.72 58.71) rotate(-8.64)"/><path class="cls-2" d="M775.11,245.65a1.45,1.45,0,1,1,1.22-1.65A1.45,1.45,0,0,1,775.11,245.65Z"/><circle class="cls-2" cx="564.82" cy="248.55" r="1.45" transform="translate(-30.94 87.71) rotate(-8.64)"/><circle class="cls-2" cx="639.14" cy="306.77" r="1.45" transform="translate(-38.85 99.55) rotate(-8.64)"/><path class="cls-2" d="M571.47,352.87a1.45,1.45,0,1,1,1.22-1.66A1.45,1.45,0,0,1,571.47,352.87Z"/><circle class="cls-2" cx="196.68" cy="203.54" r="1.45" transform="matrix(0.99, -0.15, 0.15, 0.99, -28.36, 31.87)"/><path class="cls-2" d="M241.2,262.14a1.46,1.46,0,1,1,1.21-1.66A1.46,1.46,0,0,1,241.2,262.14Z"/><circle class="cls-2" cx="773.12" cy="279.99" r="1.45" transform="translate(-33.3 119.38) rotate(-8.64)"/><circle class="cls-2" cx="798.69" cy="285.94" r="1.45" transform="translate(-33.9 123.29) rotate(-8.64)"/><circle class="cls-2" cx="906.85" cy="204.83" r="1.45" transform="translate(-20.48 138.62) rotate(-8.64)"/><circle class="cls-2" cx="894.11" cy="293.53" r="1.45" transform="translate(-33.96 137.72) rotate(-8.64)"/><path class="cls-2" d="M461.09,308.81a1.46,1.46,0,0,1-1.07-.27,1.46,1.46,0,0,1,.64-2.61,1.5,1.5,0,0,1,1.08.27,1.46,1.46,0,0,1,.57.95,1.42,1.42,0,0,1-.26,1.08A1.47,1.47,0,0,1,461.09,308.81Z"/><path class="cls-2" d="M425.46,347.19a1.44,1.44,0,0,1-1.38-2.29,1.39,1.39,0,0,1,.95-.58,1.45,1.45,0,0,1,1.38,2.3A1.43,1.43,0,0,1,425.46,347.19Z"/><path class="cls-2" d="M11.67,278.62a1.43,1.43,0,0,1-1.08-.26,1.46,1.46,0,0,1-.31-2,1.45,1.45,0,1,1,2.34,1.72A1.46,1.46,0,0,1,11.67,278.62Z"/><path class="cls-2" d="M483.39,294.94a1.43,1.43,0,0,1-1.08-.27,1.45,1.45,0,0,1,.64-2.6,1.43,1.43,0,0,1,1.08.26,1.45,1.45,0,0,1,.31,2A1.43,1.43,0,0,1,483.39,294.94Z"/><path class="cls-2" d="M417.29,117a1.45,1.45,0,0,1-1.38-2.3,1.4,1.4,0,0,1,.95-.57,1.44,1.44,0,0,1,1.38,2.29A1.42,1.42,0,0,1,417.29,117Z"/><circle class="cls-2" cx="799.39" cy="110.33" r="1.45" transform="translate(-7.5 121.4) rotate(-8.64)"/><circle class="cls-2" cx="730.66" cy="83.71" r="1.45" transform="translate(-4.28 110.77) rotate(-8.64)"/><circle class="cls-2" cx="546.43" cy="49.79" r="1.45" transform="translate(-1.28 82.69) rotate(-8.64)"/><circle class="cls-2" cx="773.66" cy="44.83" r="1.45" transform="translate(2.05 116.79) rotate(-8.64)"/><path class="cls-2" d="M445.3,204.69a.32.32,0,0,1-.29-.25.34.34,0,0,1,.06-.22.27.27,0,0,1,.19-.11h0a.31.31,0,0,1,.32.24.29.29,0,0,1-.25.33Z"/><circle class="cls-2" cx="491.85" cy="233.87" r="4.29"/><circle class="cls-2" cx="142.81" cy="222.77" r="4.29"/><circle class="cls-2" cx="79.14" cy="212.2" r="4.29"/><path class="cls-2" d="M33.16,182.14a1.59,1.59,0,0,1-1.8-1.33,1.58,1.58,0,1,1,1.8,1.33Z"/><circle class="cls-2" cx="172.79" cy="233.2" r="4.29"/><circle class="cls-2" cx="271.25" cy="315.26" r="4.29"/><circle class="cls-2" cx="738.95" cy="257.57" r="4.29"/><circle class="cls-2" cx="125.03" cy="285.69" r="4.29"/></g><g class="cls-1"><circle class="cls-2" cx="1091.18" cy="538.59" r="4.01"/><circle class="cls-2" cx="1095.05" cy="578.6" r="4.01"/><circle class="cls-2" cx="1130.85" cy="600.47" r="4.01"/><circle class="cls-2" cx="1039.91" cy="448.95" r="4.01"/><circle class="cls-2" cx="1076.3" cy="455.22" r="4.01"/><circle class="cls-2" cx="1070.49" cy="441.34" r="4.01"/><circle class="cls-2" cx="1178.25" cy="361.11" r="2.73"/><circle class="cls-2" cx="1036.48" cy="576.92" r="4.01"/><circle class="cls-2" cx="791.69" cy="564.19" r="4.01"/><circle class="cls-2" cx="685.8" cy="582.99" r="4.01"/><circle class="cls-2" cx="681.74" cy="617.81" r="4.01"/><circle class="cls-2" cx="669.64" cy="649.91" r="4.01"/><path class="cls-2" d="M597.33,682.43a2.56,2.56,0,1,1-2.15,2.92A2.57,2.57,0,0,1,597.33,682.43Z"/><path class="cls-2" d="M811.07,651.16a2.56,2.56,0,1,1-2.15,2.92A2.58,2.58,0,0,1,811.07,651.16Z"/><circle class="cls-2" cx="872.58" cy="537.87" r="4.01"/><circle class="cls-2" cx="641.2" cy="574.52" r="1.36" transform="translate(-79.06 102.9) rotate(-8.64)"/><circle class="cls-2" cx="592.97" cy="616.54" r="1.36" transform="translate(-85.93 96.13) rotate(-8.64)"/><circle class="cls-2" cx="848.83" cy="571" r="1.36" transform="translate(-76.18 134.06) rotate(-8.64)"/><circle class="cls-2" cx="897.3" cy="554.78" r="1.36" transform="translate(-73.19 141.16) rotate(-8.64)"/><circle class="cls-2" cx="1126.06" cy="496.13" r="1.36" transform="translate(-61.78 174.88) rotate(-8.64)"/><circle class="cls-2" cx="1324.92" cy="328.11" r="1.36" transform="translate(-34.26 202.86) rotate(-8.64)"/><circle class="cls-2" cx="1285.41" cy="422.7" r="1.36" transform="translate(-48.93 198) rotate(-8.64)"/><circle class="cls-2" cx="696.89" cy="489.28" r="1.36" transform="translate(-65.62 110.3) rotate(-8.64)"/><circle class="cls-2" cx="1236.06" cy="535.02" r="1.36" transform="translate(-66.37 191.85) rotate(-8.64)"/><circle class="cls-2" cx="1289.24" cy="561.99" r="1.36" transform="translate(-69.82 200.15) rotate(-8.64)"/><circle class="cls-2" cx="1082.91" cy="605.54" r="1.36" transform="translate(-78.71 169.64) rotate(-8.64)"/><circle class="cls-2" cx="1033.58" cy="421.86" r="1.36" transform="translate(-51.66 160.14) rotate(-8.64)"/><path class="cls-2" d="M652.22,477.72a1.36,1.36,0,1,1-1.14,1.55A1.36,1.36,0,0,1,652.22,477.72Z"/><circle class="cls-2" cx="849" cy="475.02" r="1.36" transform="translate(-61.75 133) rotate(-8.64)"/><circle class="cls-2" cx="779.45" cy="420.53" r="1.36" transform="translate(-54.35 121.93) rotate(-8.64)"/><path class="cls-2" d="M842.77,377.4a1.36,1.36,0,1,1-1.14,1.55A1.36,1.36,0,0,1,842.77,377.4Z"/><circle class="cls-2" cx="1193.48" cy="517.13" r="1.36" transform="translate(-64.17 185.25) rotate(-8.64)"/><path class="cls-2" d="M1151.82,462.3a1.36,1.36,0,1,1-1.14,1.55A1.36,1.36,0,0,1,1151.82,462.3Z"/><circle class="cls-2" cx="654.08" cy="445.6" r="1.36" transform="translate(-59.54 103.37) rotate(-8.64)"/><circle class="cls-2" cx="630.16" cy="440.02" r="1.36" transform="translate(-58.98 99.71) rotate(-8.64)"/><circle class="cls-2" cx="528.95" cy="515.92" r="1.36" transform="translate(-71.53 85.36) rotate(-8.64)"/><circle class="cls-2" cx="540.87" cy="432.93" r="1.36" transform="translate(-58.92 86.21) rotate(-8.64)"/><path class="cls-2" d="M946.06,418.63a1.31,1.31,0,0,1,1,.25,1.35,1.35,0,0,1-.6,2.43,1.35,1.35,0,0,1-1.55-1.13,1.36,1.36,0,0,1,1.14-1.55Z"/><path class="cls-2" d="M979.4,382.71a1.3,1.3,0,0,1,1,.25,1.37,1.37,0,0,1,.29,1.9,1.36,1.36,0,0,1-1.9.29,1.35,1.35,0,0,1-.29-1.9A1.33,1.33,0,0,1,979.4,382.71Z"/><path class="cls-2" d="M1366.6,446.87a1.41,1.41,0,0,1,1,.25,1.36,1.36,0,0,1-.61,2.44,1.38,1.38,0,0,1-1-.25,1.35,1.35,0,0,1-.29-1.9A1.37,1.37,0,0,1,1366.6,446.87Z"/><path class="cls-2" d="M925.2,431.6a1.41,1.41,0,0,1,1,.25,1.36,1.36,0,0,1,.53.89,1.36,1.36,0,0,1-1.14,1.55,1.29,1.29,0,0,1-1-.25,1.35,1.35,0,0,1-.29-1.9A1.37,1.37,0,0,1,925.2,431.6Z"/><path class="cls-2" d="M987,598.07a1.39,1.39,0,0,1,1,.25,1.36,1.36,0,0,1-.6,2.44,1.39,1.39,0,0,1-1-.25,1.37,1.37,0,0,1-.29-1.9A1.39,1.39,0,0,1,987,598.07Z"/><circle class="cls-2" cx="629.5" cy="604.35" r="1.36" transform="translate(-83.68 101.48) rotate(-8.64)"/><circle class="cls-2" cx="693.82" cy="629.26" r="1.36" transform="translate(-86.7 111.43) rotate(-8.64)"/><circle class="cls-2" cx="866.2" cy="661" r="1.36" transform="translate(-89.51 137.7) rotate(-8.64)"/><circle class="cls-2" cx="653.58" cy="665.64" r="1.36" transform="translate(-92.62 105.79) rotate(-8.64)"/><circle class="cls-2" cx="960.84" cy="516.33" r="4.01"/><circle class="cls-2" cx="917.28" cy="488.75" r="4.01"/><circle class="cls-2" cx="1243.89" cy="499.13" r="4.01"/><circle class="cls-2" cx="1303.46" cy="509.02" r="4.01"/><path class="cls-2" d="M1346.49,537.16a1.48,1.48,0,1,1-1.24,1.68A1.48,1.48,0,0,1,1346.49,537.16Z"/><circle class="cls-2" cx="1215.83" cy="489.37" r="4.01"/><circle class="cls-2" cx="1123.7" cy="412.59" r="4.01"/><circle class="cls-2" cx="1260.53" cy="440.26" r="4.01"/></g></svg>